<?xml version="1.0" encoding="UTF-8"?> <!-- Generator: Adobe Illustrator 16.0.0, SVG Export Plug-In . SVG Version: 6.00 Build 0) --> <svg xmlns="http://www.w3.org/2000/svg" xmlns:xlink="http://www.w3.org/1999/xlink" id="Layer_1" x="0px" y="0px" width="200px" height="200px" viewBox="0 0 200 200" xml:space="preserve"> <g> <path fill-rule="evenodd" clip-rule="evenodd" fill="#BD242A" d="M159.329,6.603c-8.33,8.421-16.532,16.722-24.747,25.01 c-2.525,2.548-5.025,5.124-7.65,7.566c-1.009,0.939-0.755,1.378,0.075,2.203c15.154,15.041,30.269,30.123,45.43,45.154 c1.018,1.009,1.423,1.997,1.403,3.416c-0.079,5.578-0.033,11.157-0.033,16.815c-0.711-0.013-0.96-0.596-1.319-0.951 c-17.886-17.784-35.772-35.568-53.615-53.396c-1.078-1.077-1.747-1.276-2.736-0.015c-0.934,1.191-2.942,2.053-2.883,3.333 c0.051,1.106,1.826,2.15,2.87,3.19c18.799,18.725,37.596,37.451,56.423,56.145c0.921,0.914,1.313,1.812,1.29,3.111 c-0.075,4.547-0.029,9.094-0.029,13.771c-0.744-0.172-1.074-0.727-1.48-1.131c-11.508-11.44-23.022-22.874-34.479-34.365 c-1.058-1.06-1.578-1.056-2.633-0.003c-18.688,18.671-37.426,37.294-56.13,55.954c-0.782,0.778-1.543,1.131-2.663,1.122 c-6.377-0.053-12.754-0.026-19.13-0.026c-0.491,0-0.981,0-1.889,0c2.859-2.841,5.426-5.385,7.989-7.937 c19.132-19.035,38.252-38.08,57.42-57.079c1.116-1.106,1.227-1.788-0.031-2.723c-1.21-0.902-2.029-2.943-3.363-2.819 c-1.151,0.106-2.168,1.827-3.214,2.867c-22.322,22.207-44.642,44.413-66.942,66.64c-0.734,0.73-1.438,1.088-2.509,1.079 c-6.084-0.057-12.171-0.028-18.583-0.028c0.572-0.618,0.953-1.06,1.365-1.471c15.615-15.545,31.223-31.101,46.875-46.607 c1.039-1.029,1.137-1.523,0.031-2.616c-15.742-15.58-31.421-31.222-47.146-46.819c-0.799-0.793-1.103-1.569-1.094-2.67 c0.046-5.957,0.021-11.916,0.021-17.873c0.163-0.119,0.325-0.239,0.488-0.358c2.329,2.449,4.603,4.954,6.995,7.34 c17.495,17.451,35.023,34.869,52.5,52.337c1.015,1.015,1.617,1.303,2.616,0.047c0.951-1.195,2.886-2.159,2.978-3.336 c0.096-1.219-1.861-2.235-2.944-3.313C68.404,67.793,47.949,47.423,27.464,27.085c-0.929-0.922-1.287-1.834-1.271-3.124 c0.066-5.123,0.027-10.248,0.027-15.373c0-0.545,0-1.092,0-1.637c0.146-0.095,0.292-0.191,0.438-0.286 c3.274,3.371,6.507,6.782,9.83,10.104c10.549,10.546,21.145,21.048,31.681,31.607c0.922,0.924,1.4,0.998,2.369,0.029 c13.564-13.571,27.183-27.088,40.758-40.647c0.825-0.824,1.625-1.203,2.811-1.185c4.651,0.071,9.304,0.029,14.302,0.029 c-0.627,0.656-1.027,1.096-1.45,1.516c-16.063,15.984-32.114,31.979-48.22,47.919c-1.093,1.082-1.125,1.656,0.032,2.594 c1.184,0.962,2.221,2.93,3.327,2.933c1.109,0.003,2.247-1.851,3.333-2.931c17.042-16.946,34.086-33.89,51.094-50.87 c0.892-0.89,1.769-1.194,2.983-1.185C146.096,6.629,152.684,6.603,159.329,6.603z M101.152,66.929 c-0.315-0.418-0.597-0.843-0.932-1.223c-2.98-3.378-8.145-2.778-9.889,1.14c-0.956,2.148-0.342,4.137,0.708,6.021 c2.22,3.979,5.57,6.85,9.329,9.3c0.466,0.304,0.881,0.432,1.403,0.085c4.12-2.74,7.875-5.845,9.917-10.517 c1.232-2.817,0.654-5.147-1.499-6.904C107.378,62.536,103.563,63.405,101.152,66.929z"></path> <path fill-rule="evenodd" clip-rule="evenodd" fill="#D42F2E" d="M84.601,174.098c-2.733,5.541-5.238,10.617-7.742,15.695 c-0.603,1.223-1.185,2.455-1.811,3.667c-0.195,0.379-0.228,0.955-0.792,1.011c-0.704,0.068-0.742-0.592-0.953-1.014 c-2.924-5.84-5.835-11.688-8.751-17.533c-0.223-0.448-0.469-0.886-0.919-1.735c-0.553,4.08-1.052,7.744-1.543,11.409 c-0.356,2.647-0.724,5.294-1.047,7.945c-0.206,1.681-1.467,0.84-2.259,0.923c-1.078,0.111-0.544-0.75-0.483-1.191 c1.177-8.558,2.375-17.114,3.595-25.665c0.067-0.469,0.001-1.021,0.666-1.678c3.877,7.788,7.696,15.456,11.63,23.362 c1.265-2.563,2.417-4.882,3.556-7.207c2.421-4.949,4.829-9.903,7.265-14.843c0.202-0.408,0.236-1.163,0.928-1.008 c0.548,0.123,0.354,0.763,0.414,1.183c1.227,8.495,2.456,16.988,3.631,25.488c0.069,0.501,0.753,1.502-0.487,1.562 c-0.925,0.044-2.107,0.573-2.325-1.234C86.423,187.03,85.52,180.843,84.601,174.098z"></path> <path fill-rule="evenodd" clip-rule="evenodd" fill="#D42F2E" d="M159.573,195.199c-6.047-0.029-10.941-2.303-13.705-7.845 c-2.644-5.298-2.542-10.702,0.971-15.666c5.367-7.583,17.655-8.44,24.029-1.744c0.427,0.45,1.647,0.915,0.476,1.851 c-0.8,0.638-1.345,1.424-2.57,0.181c-6.486-6.59-18.031-4.17-20.909,4.281c-1.851,5.439,0.093,11.188,4.808,14.222 c4.959,3.19,11.673,2.467,16.053-1.685c0.431-0.408,0.671-1.396,1.723-0.666c1.659,1.152,1.726,1.263,0.263,2.729 C167.895,193.681,164.031,195.184,159.573,195.199z"></path> <path fill-rule="evenodd" clip-rule="evenodd" fill="#D42F2E" d="M54.985,194.334c-1.884,0.557-3.095,0.133-3.814-1.837 c-0.755-2.071-1.872-4.01-2.78-6.029c-0.361-0.8-0.777-1.224-1.766-1.203c-3.355,0.072-6.713,0.062-10.069,0.006 c-0.889-0.017-1.313,0.31-1.657,1.087c-0.875,1.971-1.834,3.903-2.759,5.854c-1.177,2.481-1.177,2.481-4.211,2.161 c1.712-3.627,3.402-7.21,5.094-10.791c2.594-5.493,5.189-10.985,7.792-16.475c0.183-0.388,0.233-0.944,0.837-0.938 c0.514,0.004,0.574,0.479,0.736,0.827c4.155,8.897,8.309,17.799,12.456,26.701C54.933,193.891,54.94,194.124,54.985,194.334z M36.772,182.447c3.339,0,6.432,0,9.739,0c-1.619-3.427-3.162-6.691-4.863-10.29C39.924,175.795,38.381,179.05,36.772,182.447z"></path> <path fill-rule="evenodd" clip-rule="evenodd" fill="#D42F2E" d="M141.014,194.38c-1.882,0.587-3.043,0.009-3.761-1.914 c-0.772-2.068-1.883-4.007-2.784-6.029c-0.366-0.825-0.814-1.192-1.786-1.172c-3.3,0.072-6.603,0.065-9.901,0.004 c-0.934-0.018-1.438,0.254-1.812,1.119c-0.837,1.926-1.777,3.807-2.678,5.705c-1.182,2.492-1.182,2.492-4.033,2.355 c-0.316-0.349,0.026-0.633,0.147-0.888c4.137-8.786,8.285-17.564,12.445-26.338c0.203-0.427,0.24-1.095,0.934-1.047 c0.571,0.038,0.609,0.627,0.79,1.012c4.061,8.694,8.107,17.395,12.16,26.094C140.898,193.637,141.154,193.968,141.014,194.38z M122.819,182.542c2.459,0,4.616,0,6.772,0c3.062,0,3.067-0.004,1.728-2.839c-1.138-2.408-2.288-4.809-3.586-7.533 C126.012,175.802,124.469,179.057,122.819,182.542z"></path> <path fill-rule="evenodd" clip-rule="evenodd" fill="#D42F2E" d="M95.922,180.204c0-4.206,0.027-8.413-0.02-12.619 c-0.012-1.026,0.137-1.528,1.354-1.469c3.401,0.166,6.818-0.194,10.211,0.325c3.896,0.6,6.261,3.333,6.247,7.257 c-0.015,3.898-2.428,6.586-6.355,7.164c-2.433,0.357-4.875,0.342-7.316,0.309c-0.97-0.013-1.266,0.298-1.254,1.259 c0.047,3.579-0.037,7.162,0.049,10.742c0.028,1.22-0.469,1.354-1.487,1.365c-1.043,0.011-1.481-0.179-1.459-1.374 C95.969,188.845,95.922,184.524,95.922,180.204z M98.78,173.396c0,1.525,0.003,2.775-0.002,4.024 c-0.001,0.534-0.022,1.049,0.757,1.021c2.547-0.091,5.119,0.313,7.64-0.303c2.27-0.554,3.611-2.298,3.572-4.557 c-0.038-2.259-1.455-3.912-3.731-4.422c-1.123-0.252-2.256-0.31-3.389-0.254c-1.567,0.077-3.581-0.689-4.578,0.319 C98.126,170.157,98.894,172.148,98.78,173.396z"></path> </g> </svg> 